<svg width="109" height="19" viewBox="0 0 109 19" fill="none" xmlns="http://www.w3.org/2000/svg">
<path d="M19.136 17.882V19H0V17.882H5.772C4.40267 17.0673 3.31933 15.958 2.522 14.554C1.742 13.15 1.352 11.564 1.352 9.796C1.352 7.12667 2.27067 4.89067 4.108 3.088C5.96267 1.28533 8.294 0.383999 11.102 0.383999C13.9273 0.383999 16.2847 1.424 18.174 3.504L16.224 5.636C15.3573 4.804 14.534 4.22333 13.754 3.894C12.9913 3.56467 12.09 3.4 11.05 3.4C9.21267 3.4 7.67 3.998 6.422 5.194C5.174 6.37267 4.55 7.88933 4.55 9.744C4.55 11.5813 5.16533 13.124 6.396 14.372C7.644 15.6027 9.11733 16.218 10.816 16.218C11.8733 16.218 12.7833 16.0447 13.546 15.698C14.3087 15.334 15.106 14.762 15.938 13.982L17.914 16.01C17.1513 16.842 16.4233 17.466 15.73 17.882H19.136Z" fill="white"/>
<path d="M19.136 17.882V19H0V17.882H5.772C4.40267 17.0673 3.31933 15.958 2.522 14.554C1.742 13.15 1.352 11.564 1.352 9.796C1.352 7.12667 2.27067 4.89067 4.108 3.088C5.96267 1.28533 8.294 0.383999 11.102 0.383999C13.9273 0.383999 16.2847 1.424 18.174 3.504L16.224 5.636C15.3573 4.804 14.534 4.22333 13.754 3.894C12.9913 3.56467 12.09 3.4 11.05 3.4C9.21267 3.4 7.67 3.998 6.422 5.194C5.174 6.37267 4.55 7.88933 4.55 9.744C4.55 11.5813 5.16533 13.124 6.396 14.372C7.644 15.6027 9.11733 16.218 10.816 16.218C11.8733 16.218 12.7833 16.0447 13.546 15.698C14.3087 15.334 15.106 14.762 15.938 13.982L17.914 16.01C17.1513 16.842 16.4233 17.466 15.73 17.882H19.136Z" fill="url(#paint0_linear)"/>
<path d="M38.7225 17.882V19H33.1065L28.7645 12.89H24.7345V19H19.1445V17.882H21.6665V0.825998H28.4265C31.1999 0.825998 33.1845 1.294 34.3805 2.23C35.5765 3.166 36.1745 4.66533 36.1745 6.728C36.1745 9.72667 34.8659 11.616 32.2485 12.396L36.2005 17.882H38.7225ZM28.5565 10.108C30.2899 10.108 31.4685 9.83933 32.0925 9.302C32.7165 8.76467 33.0285 7.90667 33.0285 6.728C33.0285 5.532 32.7079 4.71733 32.0665 4.284C31.4252 3.83333 30.2812 3.608 28.6345 3.608H24.7345V10.108H28.5565Z" fill="white"/>
<path d="M38.7225 17.882V19H33.1065L28.7645 12.89H24.7345V19H19.1445V17.882H21.6665V0.825998H28.4265C31.1999 0.825998 33.1845 1.294 34.3805 2.23C35.5765 3.166 36.1745 4.66533 36.1745 6.728C36.1745 9.72667 34.8659 11.616 32.2485 12.396L36.2005 17.882H38.7225ZM28.5565 10.108C30.2899 10.108 31.4685 9.83933 32.0925 9.302C32.7165 8.76467 33.0285 7.90667 33.0285 6.728C33.0285 5.532 32.7079 4.71733 32.0665 4.284C31.4252 3.83333 30.2812 3.608 28.6345 3.608H24.7345V10.108H28.5565Z" fill="url(#paint1_linear)"/>
<path d="M44.2825 17.882V11.824L37.5225 0.825998H40.8765L45.8425 9.094L50.8085 0.825998H54.1625L47.4025 11.824V17.882H53.9545V19H37.7305V17.882H44.2825Z" fill="white"/>
<path d="M44.2825 17.882V11.824L37.5225 0.825998H40.8765L45.8425 9.094L50.8085 0.825998H54.1625L47.4025 11.824V17.882H53.9545V19H37.7305V17.882H44.2825Z" fill="url(#paint2_linear)"/>
<path d="M71.7391 17.882V19H53.9545V17.882H56.4771V0.825998H62.7171C65.4731 0.825998 67.4837 1.35467 68.7491 2.412C70.0144 3.46933 70.6471 5.09867 70.6471 7.3C70.6471 9.50133 69.9971 11.1133 68.6971 12.136C67.4144 13.1587 65.4384 13.67 62.7691 13.67H59.5451V17.882H71.7391ZM63.1071 10.888C64.8057 10.888 65.9584 10.5673 66.5651 9.926C67.1891 9.26733 67.5011 8.314 67.5011 7.066C67.5011 5.80067 67.1111 4.908 66.3311 4.388C65.5511 3.868 64.3291 3.608 62.6651 3.608H59.5451V10.888H63.1071Z" fill="white"/>
<path d="M71.7391 17.882V19H53.9545V17.882H56.4771V0.825998H62.7171C65.4731 0.825998 67.4837 1.35467 68.7491 2.412C70.0144 3.46933 70.6471 5.09867 70.6471 7.3C70.6471 9.50133 69.9971 11.1133 68.6971 12.136C67.4144 13.1587 65.4384 13.67 62.7691 13.67H59.5451V17.882H71.7391ZM63.1071 10.888C64.8057 10.888 65.9584 10.5673 66.5651 9.926C67.1891 9.26733 67.5011 8.314 67.5011 7.066C67.5011 5.80067 67.1111 4.908 66.3311 4.388C65.5511 3.868 64.3291 3.608 62.6651 3.608H59.5451V10.888H63.1071Z" fill="url(#paint3_linear)"/>
<path d="M87.4325 17.882V19H71.7285V17.882H78.0465V3.634H72.5345V0.825998H86.6265V3.634H81.1145V17.882H87.4325Z" fill="white"/>
<path d="M87.4325 17.882V19H71.7285V17.882H78.0465V3.634H72.5345V0.825998H86.6265V3.634H81.1145V17.882H87.4325Z" fill="url(#paint4_linear)"/>
<path d="M108.778 17.882V19H86.9375V17.882H92.8915C91.4702 17.0673 90.3435 15.9493 89.5115 14.528C88.6968 13.1067 88.2895 11.5207 88.2895 9.77C88.2895 7.10067 89.2082 4.87333 91.0455 3.088C92.8828 1.28533 95.1535 0.383999 97.8575 0.383999C100.562 0.383999 102.832 1.28533 104.67 3.088C106.507 4.87333 107.425 7.10067 107.425 9.77C107.425 11.5033 107.009 13.0893 106.177 14.528C105.363 15.9667 104.245 17.0847 102.824 17.882H108.778ZM102.408 5.116C101.177 3.83333 99.6602 3.192 97.8575 3.192C96.0548 3.192 94.5295 3.83333 93.2815 5.116C92.0508 6.39867 91.4355 7.95867 91.4355 9.796C91.4355 11.616 92.0508 13.1673 93.2815 14.45C94.5295 15.7327 96.0548 16.374 97.8575 16.374C99.6602 16.374 101.177 15.7327 102.408 14.45C103.656 13.1673 104.28 11.616 104.28 9.796C104.28 7.95867 103.656 6.39867 102.408 5.116Z" fill="white"/>
<path d="M108.778 17.882V19H86.9375V17.882H92.8915C91.4702 17.0673 90.3435 15.9493 89.5115 14.528C88.6968 13.1067 88.2895 11.5207 88.2895 9.77C88.2895 7.10067 89.2082 4.87333 91.0455 3.088C92.8828 1.28533 95.1535 0.383999 97.8575 0.383999C100.562 0.383999 102.832 1.28533 104.67 3.088C106.507 4.87333 107.425 7.10067 107.425 9.77C107.425 11.5033 107.009 13.0893 106.177 14.528C105.363 15.9667 104.245 17.0847 102.824 17.882H108.778ZM102.408 5.116C101.177 3.83333 99.6602 3.192 97.8575 3.192C96.0548 3.192 94.5295 3.83333 93.2815 5.116C92.0508 6.39867 91.4355 7.95867 91.4355 9.796C91.4355 11.616 92.0508 13.1673 93.2815 14.45C94.5295 15.7327 96.0548 16.374 97.8575 16.374C99.6602 16.374 101.177 15.7327 102.408 14.45C103.656 13.1673 104.28 11.616 104.28 9.796C104.28 7.95867 103.656 6.39867 102.408 5.116Z" fill="url(#paint5_linear)"/>
<defs>
<linearGradient id="paint0_linear" x1="0" y1="9.93067" x2="176.14" y2="9.93067" gradientUnits="userSpaceOnUse">
<stop offset="0.0885417" stop-color="#1F466A" stop-opacity="0.88"/>
<stop offset="1" stop-color="white" stop-opacity="0"/>
</linearGradient>
<linearGradient id="paint1_linear" x1="0" y1="9.93067" x2="176.14" y2="9.93067" gradientUnits="userSpaceOnUse">
<stop offset="0.0885417" stop-color="#1F466A" stop-opacity="0.88"/>
<stop offset="1" stop-color="white" stop-opacity="0"/>
</linearGradient>
<linearGradient id="paint2_linear" x1="0" y1="9.93067" x2="176.14" y2="9.93067" gradientUnits="userSpaceOnUse">
<stop offset="0.0885417" stop-color="#1F466A" stop-opacity="0.88"/>
<stop offset="1" stop-color="white" stop-opacity="0"/>
</linearGradient>
<linearGradient id="paint3_linear" x1="0" y1="9.93067" x2="176.14" y2="9.93067" gradientUnits="userSpaceOnUse">
<stop offset="0.0885417" stop-color="#1F466A" stop-opacity="0.88"/>
<stop offset="1" stop-color="white" stop-opacity="0"/>
</linearGradient>
<linearGradient id="paint4_linear" x1="0" y1="9.93067" x2="176.14" y2="9.93067" gradientUnits="userSpaceOnUse">
<stop offset="0.0885417" stop-color="#1F466A" stop-opacity="0.88"/>
<stop offset="1" stop-color="white" stop-opacity="0"/>
</linearGradient>
<linearGradient id="paint5_linear" x1="0" y1="9.93067" x2="176.14" y2="9.93067" gradientUnits="userSpaceOnUse">
<stop offset="0.0885417" stop-color="#1F466A" stop-opacity="0.88"/>
<stop offset="1" stop-color="white" stop-opacity="0"/>
</linearGradient>
</defs>
</svg>
